<?xml version="1.0" standalone="no"?>
<!DOCTYPE svg PUBLIC "-//W3C//DTD SVG 20010904//EN"
 "http://www.w3.org/TR/2001/REC-SVG-20010904/DTD/svg10.dtd">
<svg version="1.0" xmlns="http://www.w3.org/2000/svg"
 width="1024.000000pt" height="1024.000000pt" viewBox="0 0 1024.000000 1024.000000"
 preserveAspectRatio="xMidYMid meet">

<g transform="translate(0.000000,1024.000000) scale(0.100000,-0.100000)"
fill="#000000" stroke="none">
<path d="M4915 8473 c-175 -23 -326 -68 -475 -143 -357 -180 -612 -509 -675
-868 -9 -48 -20 -199 -25 -337 -8 -236 -10 -253 -34 -307 -14 -32 -30 -84 -35
-116 -11 -70 2 -202 25 -254 15 -34 15 -45 -6 -190 -12 -84 -40 -229 -62 -323
-31 -136 -40 -197 -45 -305 -8 -188 17 -289 102 -415 l42 -64 -53 -22 c-89
-36 -226 -133 -299 -211 -155 -168 -236 -340 -264 -564 -29 -237 -51 -463 -51
-538 0 -92 13 -116 64 -116 25 0 76 38 76 58 0 23 71 574 81 622 17 91 58 204
95 266 106 176 217 273 404 355 79 34 320 112 320 103 0 -2 -9 -26 -20 -54
-26 -66 -50 -205 -50 -290 0 -37 -3 -102 -7 -144 l-6 -77 -60 -31 c-121 -61
-211 -187 -251 -351 -19 -75 -40 -346 -31 -389 11 -50 59 -103 115 -127 43
-19 67 -22 126 -19 80 4 114 23 114 65 0 54 -38 85 -119 97 -83 13 -83 13 -76
134 12 193 44 306 106 376 93 106 260 113 355 14 50 -52 67 -84 89 -168 18
-69 38 -294 29 -322 -5 -17 -39 -29 -117 -43 -50 -8 -77 -36 -77 -79 0 -54 36
-76 124 -76 87 0 137 21 188 78 48 53 54 87 40 252 -25 303 -108 472 -274 555
-39 19 -82 35 -95 35 l-24 0 6 142 c3 79 13 180 21 226 24 137 92 260 165 298
47 24 56 18 69 -38 36 -170 232 -561 461 -924 l109 -172 0 -218 c0 -236 5
-259 52 -281 34 -17 81 -1 97 33 7 16 11 101 11 240 l0 215 95 155 c234 379
424 767 467 953 6 28 17 51 24 51 7 0 32 -15 55 -33 133 -101 179 -253 182
-600 l2 -190 -45 -15 c-66 -22 -160 -120 -188 -195 -59 -156 11 -336 162 -415
45 -23 63 -27 146 -27 111 0 158 18 229 87 67 66 96 136 96 233 0 71 -4 89
-33 147 -35 72 -98 136 -162 164 -47 21 -50 35 -50 234 0 184 -14 292 -50 400
-15 47 -27 86 -25 88 7 8 141 -34 260 -80 315 -123 501 -325 559 -609 8 -41
32 -207 51 -369 20 -161 40 -300 45 -310 25 -46 87 -57 123 -22 l21 22 -22
207 c-12 115 -27 255 -32 313 -28 316 -131 537 -331 711 -83 73 -170 131 -242
163 l-59 26 30 37 c76 99 119 209 128 335 7 99 -5 192 -50 387 -19 80 -46 222
-60 314 -25 168 -25 168 -6 223 50 143 46 261 -11 383 -29 63 -30 70 -35 255
-11 415 -52 587 -190 796 -64 97 -216 255 -323 335 -165 124 -389 212 -641
250 -86 13 -299 18 -375 8z m445 -193 c116 -22 201 -50 291 -96 73 -36 80 -49
54 -94 -7 -14 -37 -70 -65 -125 -68 -131 -83 -155 -154 -248 -131 -172 -312
-285 -665 -417 -195 -72 -322 -109 -500 -144 -187 -37 -279 -78 -329 -145 -14
-20 -32 -30 -56 -33 l-36 -4 0 116 c0 326 60 552 195 731 203 270 533 448 900
483 76 7 270 -5 365 -24z m624 -331 c213 -224 280 -387 293 -709 6 -149 5
-154 -12 -136 -10 9 -50 38 -89 64 -137 90 -278 250 -374 426 -83 152 -83 144
-20 266 30 58 61 124 70 148 9 23 21 42 26 42 6 0 53 -45 106 -101z m-240
-564 c38 -56 112 -142 199 -228 l139 -139 -11 -212 c-28 -549 -155 -837 -466
-1057 -217 -154 -469 -204 -724 -144 -194 46 -441 232 -569 430 -121 186 -182
439 -182 762 0 108 1 113 24 128 43 28 119 53 262 85 570 130 850 255 1100
493 l99 94 34 -61 c18 -33 61 -101 95 -151z m-1779 -567 c2 -7 9 -87 14 -178
6 -91 14 -182 17 -202 l7 -38 -43 0 c-57 0 -102 44 -125 124 -36 122 2 283 70
297 47 10 55 10 60 -3z m2357 -22 c26 -32 43 -104 42 -176 -1 -121 -68 -220
-148 -220 -25 0 -28 3 -22 23 3 12 13 103 22 202 9 99 17 186 20 192 5 19 66
4 86 -21z m-2417 -561 c22 -8 60 -14 85 -15 l45 0 33 -82 c66 -163 188 -332
319 -443 l71 -60 1 -106 1 -106 -46 -7 c-51 -7 -89 -27 -160 -86 -35 -29 -59
-40 -98 -45 -28 -4 -91 -20 -140 -36 -49 -16 -99 -29 -111 -29 -27 0 -94 70
-124 129 -53 103 -62 250 -27 411 8 36 31 135 50 220 19 85 40 181 46 213 6
31 12 57 13 57 1 0 20 -7 42 -15z m2441 -111 c12 -65 34 -168 49 -229 72 -300
73 -412 2 -551 -31 -61 -98 -124 -132 -124 -13 0 -59 11 -102 24 -43 14 -104
29 -136 35 -44 8 -79 25 -148 70 -49 33 -105 63 -124 67 l-35 6 0 102 0 102
71 59 c143 121 249 267 319 440 l37 90 54 7 c30 4 65 11 79 17 14 5 29 9 34 7
6 -1 20 -56 32 -122z m-1536 -660 c102 -36 110 -37 266 -42 181 -5 245 7 398
74 44 19 80 34 80 34 1 0 1 -39 1 -87 0 -57 7 -109 18 -148 l19 -60 -52 -137
c-29 -76 -71 -175 -94 -220 -41 -82 -42 -83 -91 -96 -189 -48 -561 -28 -601
33 -20 30 -125 274 -152 352 l-22 63 21 52 c15 37 23 84 27 155 l5 102 36 -19
c20 -10 84 -35 141 -56z m258 -867 c48 0 122 3 165 7 72 7 77 7 70 -11 -8 -22
-168 -289 -192 -322 l-18 -23 -70 103 c-74 111 -153 240 -153 253 0 4 25 4 55
1 31 -4 95 -8 143 -8z m1065 -371 c43 -17 84 -67 97 -116 22 -83 -32 -175
-118 -201 -146 -43 -272 147 -174 263 55 65 124 84 195 54z"/>
<path d="M4559 6914 c-38 -24 -59 -66 -59 -114 0 -82 95 -140 178 -108 84 32
107 137 44 201 -25 25 -41 31 -84 34 -38 3 -61 -1 -79 -13z"/>
<path d="M5494 6920 c-41 -16 -74 -68 -74 -115 0 -151 228 -167 256 -18 17 93
-89 171 -182 133z"/>
<path d="M5035 6525 c-54 -54 -13 -145 65 -145 32 0 80 53 80 88 0 71 -95 108
-145 57z"/>
<path d="M4762 6188 c-27 -27 -7 -91 45 -140 83 -79 240 -115 384 -88 147 28
276 142 238 212 -18 34 -47 31 -117 -11 -70 -42 -161 -71 -222 -71 -61 0 -152
29 -221 70 -69 42 -88 47 -107 28z"/>
<path d="M5301 2955 c-171 -48 -301 -180 -346 -350 -18 -69 -20 -222 -4 -297
27 -128 106 -243 211 -305 64 -39 190 -73 267 -73 125 1 272 53 337 121 23 24
26 32 17 51 -16 34 -83 108 -98 108 -7 0 -38 -15 -69 -34 -108 -65 -222 -72
-325 -19 -108 55 -156 158 -149 317 5 107 27 164 84 221 63 61 114 80 220 80
86 0 95 -2 163 -38 57 -29 76 -35 91 -27 31 17 91 102 88 125 -4 25 -78 76
-156 106 -74 29 -250 36 -331 14z"/>
<path d="M8282 2952 c-144 -52 -220 -199 -179 -343 30 -103 95 -155 267 -219
154 -57 190 -85 190 -147 0 -49 -20 -83 -62 -104 -73 -37 -202 -17 -283 45
-18 14 -39 26 -45 26 -21 0 -66 -38 -96 -81 l-29 -42 45 -39 c164 -146 430
-156 588 -23 38 32 79 114 88 177 13 99 -38 211 -123 267 -25 17 -89 47 -142
67 -53 21 -116 47 -142 60 -88 44 -93 136 -9 179 55 28 153 13 220 -35 15 -11
36 -20 46 -20 20 0 120 74 128 95 9 25 -43 73 -122 112 -71 36 -82 38 -181 41
-84 2 -117 -2 -159 -16z"/>
<path d="M1471 2946 c-8 -9 -10 -149 -9 -502 l3 -489 81 -3 c59 -2 84 1 92 11
8 9 13 112 14 332 l3 319 104 -189 c134 -246 141 -255 191 -255 49 0 48 -2
185 243 l110 196 3 -316 c1 -213 6 -321 13 -330 15 -17 160 -18 177 -1 17 17
17 969 0 986 -7 7 -45 12 -98 12 -70 0 -90 -3 -102 -17 -16 -18 -258 -462
-272 -497 -5 -16 -31 23 -117 180 -61 109 -124 225 -140 256 -16 32 -38 62
-48 68 -30 15 -176 13 -190 -4z"/>
<path d="M2702 2948 c-17 -17 -17 -969 0 -986 17 -17 599 -17 616 0 7 7 12 41
12 85 0 62 -3 74 -20 83 -13 7 -85 8 -220 4 l-201 -7 3 119 3 119 180 5 180 5
0 80 0 80 -182 3 -183 2 0 121 0 120 200 -7 c155 -6 203 -4 215 6 19 16 21
150 3 168 -17 17 -589 17 -606 0z"/>
<path d="M3520 2941 c-6 -13 -10 -186 -10 -494 0 -405 2 -476 15 -487 11 -9
71 -11 237 -8 193 4 231 7 278 25 95 35 142 64 195 117 225 231 155 674 -128
807 -101 47 -179 59 -389 59 -175 0 -188 -1 -198 -19z m490 -197 c105 -47 152
-129 158 -274 5 -124 -17 -187 -87 -253 -64 -60 -122 -77 -263 -77 l-108 0 0
316 0 316 128 -4 c100 -3 137 -9 172 -24z"/>
<path d="M4562 2948 c-17 -17 -17 -969 0 -986 7 -7 42 -12 88 -12 46 0 81 5
88 12 17 17 17 969 0 986 -16 16 -160 16 -176 0z"/>
<path d="M5960 2941 c-6 -13 -10 -184 -10 -486 0 -302 4 -473 10 -486 9 -16
22 -19 93 -19 51 0 88 5 95 12 17 17 17 969 0 986 -7 7 -44 12 -95 12 -71 0
-84 -3 -93 -19z"/>
<path d="M6310 2941 c-14 -27 -13 -144 2 -159 8 -8 54 -12 140 -12 l128 0 0
-398 c0 -296 3 -401 12 -410 14 -14 156 -16 177 -3 12 8 14 72 13 410 l-2 401
128 0 c86 0 132 4 140 12 16 16 16 150 0 166 -9 9 -105 12 -370 12 -343 0
-358 -1 -368 -19z"/>
<path d="M7401 2943 c-13 -11 -52 -103 -105 -243 -46 -124 -125 -336 -176
-473 -51 -136 -90 -254 -86 -262 4 -12 24 -15 90 -15 104 0 114 7 151 115 15
44 30 86 34 93 6 10 50 13 187 13 l179 0 35 -94 c19 -52 41 -102 49 -111 18
-21 189 -24 197 -3 10 27 -338 956 -367 980 -16 13 -40 17 -94 17 -55 0 -78
-4 -94 -17z m162 -416 c32 -87 57 -162 57 -167 0 -6 -53 -10 -126 -10 -116 0
-126 1 -119 18 3 9 31 88 62 175 31 87 59 154 63 150 4 -4 32 -79 63 -166z"/>
</g>
</svg>
